#!OML:ASF C:\Vicon Data\Big\jianyuan-13\jianyuan\Session 1\Capture.male.ASF
:FULLY-SPECIFIED
:DEGREES
153
root -7.844960 17.448259 -16.040973 9.887541 5.277167 1.427676
lowerback -9.505213 0.414647 -2.302655 
upperback -0.697824 0.738314 -0.330889 
thorax 4.579835 0.290198 1.047286 
lowerneck -9.411150 -2.526493 4.627719 
upperneck 10.871675 -3.669224 -4.082158 
head 4.635481 -1.910867 -2.260506 
rclavicle 0.000000 0.000000 
rhumerus -37.080150 -14.324461 -82.899791 
rradius 33.897005 
rwrist 22.863622 
rhand -20.425554 -15.933347 
rfingers 0.000000 
rthumb 5.928954 -45.830382 
lclavicle 0.000000 0.000000 
lhumerus -53.751746 43.029733 55.258662 
lradius 21.453130 
lwrist -73.413687 
lhand -22.856081 -1.260879 
lfingers 0.000000 
lthumb 3.582079 28.688794 
rfemur -19.230540 -2.226677 21.856803 
rtibia 50.390896 
rfoot -4.229702 3.048762 
rtoes -31.478094 
lfemur -22.606641 -6.130969 -21.770555 
ltibia 15.824516 
lfoot -5.131491 2.927932 
ltoes -14.449874 
154
root -7.843800 17.448328 -16.029251 9.900591 5.250161 1.442040
lowerback -9.508877 0.411105 -2.316282 
upperback -0.700366 0.735013 -0.334763 
thorax 4.579219 0.288233 1.050501 
lowerneck -9.409982 -2.523965 4.639368 
upperneck 10.882055 -3.665897 -4.098067 
head 4.638075 -1.909900 -2.267289 
rclavicle 0.000000 0.000000 
rhumerus -37.115124 -14.344584 -82.878962 
rradius 33.856601 
rwrist 22.936286 
rhand -20.394618 -15.911468 
rfingers 0.000000 
rthumb 5.958825 -45.807658 
lclavicle 0.000000 0.000000 
lhumerus -53.553510 42.950908 55.496663 
lradius 21.472294 
lwrist -73.229596 
lhand -22.854484 -1.272202 
lfingers 0.000000 
lthumb 3.583603 28.677455 
rfemur -19.409361 -2.240571 21.821121 
rtibia 50.640807 
rfoot -4.254891 3.026004 
rtoes -31.296238 
lfemur -22.594549 -6.137814 -21.790632 
ltibia 15.863986 
lfoot -5.146945 2.921063 
ltoes -14.216138 
155
root -7.842639 17.448396 -16.017529 9.913640 5.223156 1.456404
lowerback -9.512541 0.407563 -2.329909 
upperback -0.702907 0.731712 -0.338636 
thorax 4.578603 0.286267 1.053715 
lowerneck -9.408813 -2.521437 4.651017 
upperneck 10.892436 -3.662571 -4.113975 
head 4.640669 -1.908933 -2.274071 
rclavicle 0.000000 0.000000 
rhumerus -37.150099 -14.364706 -82.858132 
rradius 33.816196 
rwrist 23.008951 
rhand -20.363681 -15.889589 
rfingers 0.000000 
rthumb 5.988697 -45.784935 
lclavicle 0.000000 0.000000 
lhumerus -53.355274 42.872084 55.734665 
lradius 21.491458 
lwrist -73.045505 
lhand -22.852887 -1.283525 
lfingers 0.000000 
lthumb 3.585127 28.666116 
rfemur -19.588182 -2.254465 21.785439 
rtibia 50.890718 
rfoot -4.280081 3.003247 
rtoes -31.114383 
lfemur -22.582457 -6.144658 -21.810709 
ltibia 15.903455 
lfoot -5.162400 2.914193 
ltoes -13.982403 
156
root -7.841026 17.447967 -16.006213 9.922103 5.204832 1.477075
lowerback -9.521777 0.396584 -2.351499 
upperback -0.692118 0.720137 -0.336366 
thorax 4.595175 0.279961 1.066851 
lowerneck -9.432456 -2.511971 4.635318 
upperneck 10.910702 -3.648403 -4.115030 
head 4.651157 -1.902810 -2.271778 
rclavicle 0.000000 0.000000 
rhumerus -37.161327 -14.367704 -82.832135 
rradius 33.766758 
rwrist 23.070790 
rhand -20.338173 -15.844339 
rfingers 0.000000 
rthumb 6.013324 -45.738968 
lclavicle 0.000000 0.000000 
lhumerus -53.199181 42.865852 55.914733 
lradius 21.527104 
lwrist -73.009531 
lhand -22.843776 -1.285635 
lfingers 0.000000 
lthumb 3.593936 28.663855 
rfemur -19.759363 -2.277826 21.745022 
rtibia 51.129907 
rfoot -4.319339 2.962565 
rtoes -30.947841 
lfemur -22.561544 -6.162650 -21.838548 
ltibia 15.933214 
lfoot -5.177056 2.916201 
ltoes -13.774131 
